<?xml version="1.0" encoding="utf-8"?>
<!-- Generator: Adobe Illustrator 21.1.0, SVG Export Plug-In . SVG Version: 6.00 Build 0)  -->
<svg version="1.1" id="Layer_1" xmlns="http://www.w3.org/2000/svg" xmlns:xlink="http://www.w3.org/1999/xlink" x="0px" y="0px"
	 viewBox="0 0 500 500" style="enable-background:new 0 0 500 500;" xml:space="preserve">
<style type="text/css">
	.st0{enable-background:new    ;}
</style>
<path id="path3986" inkscape:connector-curvature="0" class="st0" d="M250,57.3c-112.5,0-202.9,91.6-202.9,202.9S137.5,463,250,463
	c112.5,0,202.9-91.4,202.9-202.8S362.5,57.3,250,57.3z M250,86.8c94.3,0,171.4,76.9,171.4,173.4c0,78.5-51,143.8-120.8,165.6V371
	c0-17.1-6.3-32.3-16.3-42.6h9.2c40.4,0,72.9-32.7,72.9-73.3v-19.4c0-21-8.8-39.8-22.8-53.1v-43.5l-41.3,24c-2.9-0.4-5.8-0.6-8.9-0.6
	h-77.9c-6.1,0-11.9,0.8-17.6,2.2l-44.1-25.6v57.7c-7,11.3-11.2,24.6-11.2,38.9v19.4c0,40.6,32.5,73.3,72.9,73.3h8.2
	c-8.3,8.6-14,20.7-15.7,34.5c-34.6,13.3-40.4-27.4-84.6-33.5c52.8,43.1,26.4,54.7,84,57.7v41.2c-73.9-19-128.9-86.5-128.9-168
	C78.6,163.7,155.7,86.8,250,86.8L250,86.8z M256,357.8c2.8,0,5.1,24.9,5.1,55.9V425c0,2.9-0.1,5.5-0.2,8.1c-3.3,0.2-6.5,0.5-9.8,0.5
	c-0.1-2.8-0.2-5.5-0.2-8.6v-11.3C250.9,382.7,253.2,357.8,256,357.8L256,357.8z M229.8,361.9c2.8,0,5.1,24.9,5.1,55.9V429
	c0,1.4,0,2.6,0,3.8c-3.4-0.3-6.8-0.6-10.1-1.1c0-0.9,0-1.7,0-2.7v-11.1C224.7,386.9,227,361.9,229.8,361.9L229.8,361.9z
	 M280.4,361.9c2.8,0,5.1,24.9,5.1,55.9V429c0,0.3,0,0.5,0,0.8c-3.4,0.7-6.7,1.2-10.1,1.7c0-0.9,0-1.6,0-2.5v-11.1
	C275.3,386.9,277.6,361.9,280.4,361.9z"/>
</svg>
